PathFileType	4	(X/Y/Z)	s04c0401.trc
DataRate	CameraRate	NumFrames	NumMarkers	Units	OrigDataRate	OrigDataStartFrame	OrigNumFrames
200	200	4	50	mm	200	1250	2000
Frame#	Time	racr			lacr			c7			jug			rlel			rdr			llel			ldr			s2			lic			ric			lasi			rasi			rpsi			lpsi			rgt			lgt			rth1			rth2			rth3			rth4			rlfc			rmfc			rsh1			rsh2			rsh3			rsh4			rlmal			rmmal			rcal			rtoe			rmt5			lth1			lth2			lth4			lth3			llfc			lmfc			lsh1			lsh2			lsh3			lsh4			llmal			lmmal			lcal			ltoe			lmt5			SBIKE			LBIKE			RBIKE			
		X1	Y1	Z1	X2	Y2	Z2	X3	Y3	Z3	X4	Y4	Z4	X5	Y5	Z5	X6	Y6	Z6	X7	Y7	Z7	X8	Y8	Z8	X9	Y9	Z9	X10	Y10	Z10	X11	Y11	Z11	X12	Y12	Z12	X13	Y13	Z13	X14	Y14	Z14	X15	Y15	Z15	X16	Y16	Z16	X17	Y17	Z17	X18	Y18	Z18	X19	Y19	Z19	X20	Y20	Z20	X21	Y21	Z21	X22	Y22	Z22	X23	Y23	Z23	X24	Y24	Z24	X25	Y25	Z25	X26	Y26	Z26	X27	Y27	Z27	X28	Y28	Z28	X29	Y29	Z29	X30	Y30	Z30	X31	Y31	Z31	X32	Y32	Z32	X33	Y33	Z33	X34	Y34	Z34	X35	Y35	Z35	X36	Y36	Z36	X37	Y37	Z37	X38	Y38	Z38	X39	Y39	Z39	X40	Y40	Z40	X41	Y41	Z41	X42	Y42	Z42	X43	Y43	Z43	X44	Y44	Z44	X45	Y45	Z45	X46	Y46	Z46	X47	Y47	Z47	X48	Y48	Z48	X49	Y49	Z49	X50	Y50	Z50	
1250	6.2500	864.080812	1209.229717	-121.888579	833.727152	1239.504693	-460.085423	876.710114	1312.738645	-289.881346	805.071556	1171.893416	-303.817904	580.506865	1154.595580	54.360061	699.418896	939.921398	-73.638342	590.292231	1157.061550	-620.871358	687.551721	941.162026	-507.446984	272.654693	1262.581960	-252.270881	422.003595	1232.475067	-407.378615	424.146435	1226.990257	-86.813530	452.469045	1177.366113	-371.286948	448.817475	1167.715068	-130.343278	312.459398	1296.185138	-206.244214	312.003912	1300.495938	-283.927055	356.557812	1176.497182	-72.313257	372.840917	1150.969748	-437.377606	404.599115	1013.849684	-62.799988	443.561820	936.014853	-80.189002	441.761444	851.677368	-90.182455	476.169099	946.720566	-94.401674	466.645596	708.270244	-122.817394	432.260615	695.701866	-231.987398	403.201532	596.092331	-95.774177	384.880371	507.964338	-112.791074	325.855051	445.713733	-117.017957	413.883483	498.883963	-137.733334	267.516781	304.985495	-124.115846	284.684380	309.517325	-210.134999	194.430732	304.757733	-156.711146	464.497869	169.171270	-171.993295	398.217009	175.399920	-111.598953	412.438859	1073.464304	-449.662334	478.366928	1017.639549	-456.336329	506.937154	1035.415605	-441.527497	508.371377	934.618158	-469.715723	564.611131	793.313737	-457.233475	578.472482	752.603576	-349.713108	472.383960	723.292784	-483.193415	407.157396	670.649875	-459.373278	320.138661	653.047122	-456.337812	422.694892	647.561905	-430.854134	185.398735	593.916447	-448.894190	185.458689	595.205868	-362.486743	132.570792	651.351603	-405.291716	237.096493	366.080671	-413.071279	176.211501	418.498747	-474.164647	-185.021112	934.958841	-285.229996	-17.512649	79.611185	-485.360515	-17.456974	79.362633	-84.726163	
1251	6.2550	863.937658	1210.529429	-123.258946	835.542445	1237.770004	-461.691889	876.740870	1312.705622	-291.578883	804.380036	1171.322852	-304.047161	581.368574	1155.072609	54.221182	699.443001	939.770115	-73.792186	591.030257	1156.561237	-622.395404	687.227418	940.970375	-507.643776	272.566943	1261.317319	-250.248178	420.362455	1233.020158	-406.807844	425.722408	1224.634832	-86.206327	451.626113	1177.593730	-371.271925	450.278466	1165.966217	-130.476713	312.994033	1294.608774	-204.373724	311.595383	1299.790180	-281.873498	357.348022	1173.580149	-72.041831	371.940338	1151.049000	-436.707502	401.600485	1009.947640	-61.958600	438.194000	931.290144	-79.299748	433.827705	847.050346	-89.450993	471.036404	941.143884	-93.735395	454.960171	703.334597	-121.713136	420.268502	690.826812	-230.783668	391.984619	590.546734	-94.337916	374.144504	502.488561	-111.396317	315.450149	439.786025	-115.586299	403.079390	493.472128	-136.340285	258.650069	298.409320	-122.569767	275.093143	303.288084	-208.569811	185.487824	298.268349	-154.369053	455.261924	162.836045	-172.230392	389.786585	168.607132	-111.761523	413.767934	1075.002106	-448.512459	481.068316	1020.740170	-455.354642	509.857695	1039.108663	-439.619450	513.138483	938.646379	-468.762430	572.382390	798.208752	-456.131245	585.797701	757.696811	-348.859587	480.178093	728.931410	-482.204079	414.781717	676.485282	-458.511753	327.406661	659.380936	-455.678034	429.780270	653.470714	-430.062926	192.680718	600.656916	-448.300102	192.502098	602.127572	-361.936832	138.934920	657.698191	-404.905139	246.542703	373.712163	-413.202226	185.276602	425.472613	-474.222644	-185.057828	934.927894	-285.303386	-17.523779	79.575682	-485.380777	-17.449777	79.350913	-84.720497	
1252	6.2600	863.864064	1212.053323	-124.633826	837.476773	1235.842519	-463.155553	876.781231	1312.606242	-293.254447	803.785959	1170.611796	-304.092662	582.124781	1155.616410	53.862713	699.473233	939.529015	-73.925694	591.794917	1156.075972	-623.880385	686.921740	940.846293	-507.657357	272.536845	1260.137900	-248.242457	421.704961	1235.265385	-410.011225	427.474009	1222.506609	-85.395697	450.845249	1177.560701	-370.984380	451.924992	1164.484266	-130.432252	313.553310	1293.091942	-202.176663	311.199234	1299.098132	-279.753089	358.210914	1170.875633	-71.679379	371.027173	1151.305493	-436.001219	398.698681	1006.624710	-61.065985	432.722522	926.927349	-78.444402	425.798516	842.827932	-88.403458	465.831933	935.729899	-92.960985	443.148095	698.743993	-120.548639	408.139161	686.218488	-229.561124	380.881587	585.661018	-92.826228	363.520000	497.552754	-110.027327	305.163106	434.472397	-114.113119	392.416529	488.673604	-134.906082	249.480240	292.443695	-120.825777	265.383175	297.752172	-206.968040	176.437585	292.605463	-151.924754	445.840681	156.833137	-173.149524	380.932087	162.435915	-111.754571	415.013600	1076.762993	-447.403557	483.630153	1024.136018	-454.459871	511.516271	1043.230848	-439.546801	517.529419	942.847780	-468.173398	579.848932	803.699101	-455.386051	593.248498	763.283896	-347.908865	487.995804	734.742602	-481.217780	422.148692	682.499463	-457.709599	335.029635	665.426126	-454.953373	437.437551	659.343424	-429.100015	200.270346	606.905729	-447.812670	199.818846	608.508317	-361.551895	145.539520	663.484227	-404.642476	256.467445	380.774071	-413.205455	194.553014	431.947799	-474.238894	-185.136602	934.906120	-285.530968	-17.544256	79.559634	-485.374791	-17.468850	79.344173	-84.723616	
1253	6.2650	863.871317	1213.795901	-126.050197	839.396829	1233.629495	-464.510554	876.872198	1312.485760	-294.883059	803.224152	1169.868140	-303.964863	582.866534	1156.189710	53.263109	699.569060	939.343211	-74.077670	592.575966	1155.559472	-625.208618	686.599251	940.770522	-507.453404	272.448800	1258.902147	-246.076607	419.315989	1235.395778	-408.728565	429.197434	1220.158569	-84.866312	449.935139	1177.652979	-370.719594	453.143277	1162.553222	-130.570594	314.019923	1291.542844	-199.991748	311.277298	1298.117320	-276.768423	359.442446	1168.437728	-71.005247	370.068721	1151.896074	-435.406132	395.773784	1003.645106	-59.528022	427.616214	922.898535	-77.488616	417.793527	839.031726	-87.218739	460.648873	930.555856	-92.327429	431.374246	694.435070	-119.324342	395.927855	682.034700	-228.326698	370.102652	581.226396	-91.494213	352.963489	493.051704	-108.781541	294.969616	429.747268	-112.651417	381.933133	484.442453	-133.637356	240.066635	287.309211	-119.098200	255.386236	292.990806	-205.296934	167.157107	287.543994	-149.582838	436.229585	151.346573	-173.874016	371.755722	156.676681	-111.692955	416.138429	1078.759190	-446.627220	485.505611	1027.734857	-454.087545	513.350840	1047.479179	-439.067967	521.736336	947.225767	-467.418786	587.117919	809.424789	-454.596113	600.726225	769.174800	-346.908896	495.898326	740.725601	-480.140583	429.973314	688.417885	-456.852142	342.864296	671.373684	-454.423684	444.849347	665.554590	-428.337125	208.224298	612.579613	-447.369242	207.068468	614.487313	-360.843384	152.500050	668.605134	-404.418545	266.653069	387.259965	-413.144210	204.330245	437.815144	-474.387180	-185.116628	934.903474	-285.422768	-17.548685	79.535225	-485.381845	-17.478738	79.351701	-84.731237	
